<?xml version="1.0"?>
<svg xmlns="http://www.w3.org/2000/svg" height="512px" viewBox="0 -6 444.448 444" width="512px" class=""><g><path d="m36.5 73.222656h42.722656v36h-11.542968c-27.921876 0-50.457032 23.203125-50.457032 51.121094v221.164062c-.058594 27.933594 22.523438 50.632813 50.457032 50.714844h309.089843c27.929688-.082031 50.511719-22.78125 50.453125-50.714844v-221.164062c0-27.917969-22.535156-51.121094-50.453125-51.121094h-11.546875v-36h42.726563c20.15625 0 36.5-16.339844 36.5-36.5 0-20.15625-16.34375-36.5-36.5-36.5h-371.449219c-20.160156 0-36.5 16.34375-36.5 36.5 0 20.160156 16.339844 36.5 36.5 36.5zm99.722656 0v63.789063c0 11.320312-9.175781 20.5-20.5 20.5-11.320312 0-20.5-9.179688-20.5-20.5v-63.789063zm156 36h-140v-36h140zm84.546875 16c19.097657 0 34.453125 16.023438 34.453125 35.121094v221.164062c.070313 19.101563-15.355468 34.640626-34.453125 34.714844h-309.089843c-19.101563-.074218-34.523438-15.613281-34.457032-34.714844v-221.164062c0-19.101562 15.359375-35.121094 34.457032-35.121094h11.542968v11.789063c0 20.15625 16.34375 36.5 36.5 36.5 20.160156 0 36.5-16.34375 36.5-36.5v-11.789063h140v11.789063c0 20.15625 16.34375 36.5 36.5 36.5 20.160156 0 36.5-16.34375 36.5-36.5v-11.789063zm-27.546875 11.789063c0 11.320312-9.175781 20.5-20.5 20.5-11.320312 0-20.5-9.179688-20.5-20.5v-63.789063h41zm-312.722656-120.789063h371.449219c11.320312 0 20.5 9.179688 20.5 20.5 0 11.324219-9.179688 20.5-20.5 20.5h-371.449219c-11.320312 0-20.5-9.175781-20.5-20.5 0-11.320312 9.179688-20.5 20.5-20.5zm0 0" data-original="#000000" class="active-path" data-old_color="#008eaa" fill="#008eaa"/><path d="m255.683594 197.769531c-7.6875.574219-37.144532 7.933594-46.4375 10.292969-2.597656-1.335938-5.113282-2.839844-7.523438-4.492188-4.179687-2.761718-8.125-5.367187-13.277344-5.773437-14.023437-1.109375-27.8125 4.085937-37.617187 14.171875s-14.609375 24.011719-13.105469 38c2.601563 23.640625 11.457032 70.628906 41.582032 119.679688 2.417968 3.9375 6.957031 6.050781 11.527343 5.363281 4.570313-.6875 8.289063-4.035157 9.445313-8.511719l3.09375-11.992188c2.984375-11.542968 8.886718-22.121093 17.144531-30.722656l.363281-.382812.554688.53125c9.03125 8.636718 15.558594 19.550781 18.902344 31.589844l3.144531 11.347656c1.226562 4.414062 4.953125 7.683594 9.488281 8.324218 4.539062.640626 9.023438-1.46875 11.425781-5.371093 30.222657-49.148438 39.097657-96.214844 41.691407-119.902344 1.511718-13.929687-3.242188-27.808594-12.980469-37.886719-9.734375-10.074218-23.445313-15.300781-37.417969-14.265625zm34.5 50.414063c-4.335938 36.664062-15.933594 72.101562-34.109375 104.242187l-.328125-1.175781c-4.109375-14.816406-12.140625-28.246094-23.25-38.878906l-1.25-1.199219c-5.996094-5.71875-15.488282-5.519531-21.238282.449219l-1.03125 1.078125c-10.160156 10.585937-17.421874 23.605469-21.09375 37.808593l-.386718 1.5c-18.035156-32.019531-29.546875-67.292968-33.863282-103.785156-.984374-9.246094 2.199219-18.449218 8.683594-25.113281 6.488282-6.660156 15.601563-10.09375 24.871094-9.359375 1.039062.082031 3.523438 1.722656 5.714844 3.171875 8.507812 5.621094 22.75 15.035156 53.714844 11.164063 3.003906-.375 5.535156-2.410157 6.546874-5.261719 1.011719-2.851563.332032-6.027344-1.761718-8.210938 2.46875-.484375 4.386718-.800781 5.46875-.882812 9.234375-.679688 18.289062 2.773437 24.722656 9.429687s9.578125 15.824219 8.585938 25.027344zm0 0" data-original="#000000" class="active-path" data-old_color="#008eaa" fill="#008eaa"/></g> </svg>
