<?xml version="1.0" standalone="no"?>
<!DOCTYPE svg PUBLIC "-//W3C//DTD SVG 20010904//EN"
 "http://www.w3.org/TR/2001/REC-SVG-20010904/DTD/svg10.dtd">
<svg version="1.0" xmlns="http://www.w3.org/2000/svg"
 width="900.000000pt" height="1160.000000pt" viewBox="0 0 900.000000 1160.000000"
 preserveAspectRatio="xMidYMid meet">

<g transform="translate(0.000000,1160.000000) scale(0.100000,-0.100000)"
fill="#000000" stroke="none">
<path d="M4420 11586 c-141 -22 -199 -36 -340 -83 -562 -185 -1072 -630 -1399
-1218 -165 -296 -287 -667 -342 -1035 -20 -134 -24 -194 -24 -440 0 -157 3
-324 7 -373 l8 -87 -61 -73 c-317 -376 -548 -1011 -608 -1667 -5 -52 -9 -187
-10 -300 -2 -314 29 -568 105 -844 34 -125 116 -352 133 -369 5 -5 -2 40 -15
99 -29 128 -59 333 -74 499 -10 113 -15 531 -6 585 2 14 7 59 11 100 31 354
150 767 303 1050 78 142 221 333 293 389 l27 21 7 -37 c19 -101 189 -610 211
-632 3 -3 3 17 0 44 -26 224 -34 707 -15 930 55 651 229 1233 516 1725 344
587 840 1012 1338 1145 266 71 550 61 778 -27 43 -16 75 -34 70 -38 -4 -4 -39
-18 -78 -30 -191 -63 -442 -183 -587 -281 -196 -133 -370 -320 -488 -524 -20
-34 -10 -28 66 46 198 191 384 322 622 435 269 129 657 241 768 224 302 -48
607 -449 631 -827 7 -109 0 -124 -104 -224 -211 -203 -494 -325 -1303 -564
-581 -172 -831 -261 -1105 -395 -393 -191 -649 -420 -794 -708 -34 -68 -84
-212 -95 -277 l-8 -40 27 50 c88 165 261 305 550 445 132 64 424 185 431 178
7 -8 -82 -226 -141 -344 -242 -486 -695 -952 -1208 -1247 -149 -85 -190 -113
-260 -177 -198 -181 -317 -463 -346 -816 -8 -110 -6 -498 4 -544 3 -14 8 -128
12 -255 l6 -230 -56 -190 c-141 -477 -233 -954 -267 -1390 -10 -136 -10 -510
1 -620 41 -416 157 -713 352 -902 34 -34 108 -114 164 -179 115 -135 355 -373
488 -485 787 -660 1776 -1016 2840 -1023 480 -2 674 28 897 140 186 94 312
224 462 479 30 50 100 169 156 265 116 197 185 304 279 435 l64 89 -44 -34
c-86 -68 -408 -398 -586 -600 -229 -261 -314 -334 -453 -388 -135 -52 -231
-63 -565 -62 -270 0 -300 2 -495 21 -824 82 -1588 392 -2230 904 -230 184
-531 485 -672 673 -201 268 -298 594 -298 1000 1 326 44 606 191 1232 33 140
81 345 106 455 l45 200 -6 190 c-3 105 -10 262 -16 350 -11 174 -14 553 -5
650 19 193 56 367 106 493 30 75 91 186 126 229 10 11 86 55 169 96 400 200
706 410 962 661 182 178 291 320 394 512 l53 99 7 -61 c11 -103 60 -242 116
-329 l19 -30 -39 -115 c-118 -350 -153 -628 -108 -850 45 -220 140 -377 363
-603 156 -156 288 -259 612 -475 304 -202 512 -354 617 -452 55 -50 71 -71 83
-113 32 -107 17 -192 -60 -352 -57 -117 -142 -236 -284 -400 -48 -55 -90 -105
-94 -111 -4 -8 38 -36 115 -78 427 -235 760 -536 1001 -906 169 -262 271 -521
328 -840 19 -101 19 -479 1 -580 -80 -445 -274 -812 -621 -1173 -30 -31 -52
-57 -48 -57 4 0 79 35 165 78 181 91 337 185 472 285 119 89 317 287 393 393
121 171 209 378 243 574 22 129 15 414 -15 548 -125 567 -550 1142 -1129 1529
-123 82 -339 195 -439 230 -29 10 -53 20 -53 23 1 3 23 21 50 40 182 128 334
474 314 711 -14 157 -62 255 -183 372 -153 147 -298 229 -731 414 -402 172
-583 273 -752 417 -98 84 -153 157 -183 243 -63 180 -55 458 21 720 27 95 99
251 136 296 l23 28 38 -27 c151 -103 356 -151 532 -124 223 34 419 132 594
296 197 185 330 426 362 659 l12 84 45 -6 46 -6 -33 45 -33 46 59 78 c200 264
296 558 280 853 -5 96 -4 104 9 86 54 -71 75 -170 62 -300 -3 -38 -10 -136
-14 -216 -6 -135 -5 -150 16 -213 18 -54 34 -80 79 -125 31 -32 80 -70 110
-85 l53 -28 -47 59 c-68 83 -105 165 -105 234 0 71 19 132 79 260 27 57 57
130 66 163 40 138 -6 275 -140 412 l-74 76 52 52 c178 178 184 514 15 849
-135 269 -369 486 -585 542 -68 18 -177 19 -239 4 l-44 -11 -81 76 c-162 156
-353 257 -589 313 -130 31 -403 40 -540 19z m1786 -2104 c-22 -150 -74 -333
-135 -477 -80 -190 -213 -398 -261 -410 -57 -14 -76 -57 -40 -90 24 -21 25
-47 6 -137 -65 -303 -399 -648 -736 -760 -82 -27 -110 -32 -205 -32 -90 -1
-122 3 -176 22 -76 26 -160 74 -222 127 -110 94 -231 292 -278 457 l-23 76 22
74 c12 40 28 111 36 157 8 46 18 86 23 91 4 4 148 54 318 110 596 198 892 319
1170 480 187 108 362 253 451 375 29 39 52 61 57 56 5 -5 2 -54 -7 -119z"/>
<path d="M5052 8788 c-94 -60 -41 -141 138 -211 101 -40 290 -73 290 -51 0 3
-9 19 -21 35 -13 19 -19 39 -16 55 4 23 2 24 -47 24 -99 0 -247 54 -280 102
-9 12 -16 33 -16 45 0 28 -6 28 -48 1z"/>
<path d="M3310 6585 c0 -2 22 -17 50 -35 109 -70 210 -210 256 -357 42 -132
54 -231 49 -428 -8 -375 -86 -723 -356 -1589 -190 -610 -272 -914 -325 -1211
-23 -126 -28 -180 -28 -335 -1 -115 3 -199 11 -223 11 -35 10 -37 -10 -38
-100 -2 -212 -30 -307 -77 l-75 -37 100 -6 c154 -10 255 -40 413 -124 185 -98
338 -212 769 -572 543 -452 767 -610 1066 -753 249 -119 446 -169 692 -176
l160 -4 -108 20 c-267 49 -500 162 -801 389 -170 129 -263 209 -601 521 -400
368 -526 474 -714 600 -168 112 -402 210 -503 210 -26 0 -28 2 -28 44 0 101
73 403 165 681 31 93 131 376 222 630 209 582 250 704 324 949 143 477 199
776 200 1062 1 166 -4 211 -33 329 -55 227 -198 397 -404 479 -60 24 -184 59
-184 51z"/>
</g>
</svg>
